<svg width="180" height="180" viewBox="0 0 180 180" fill="none" xmlns="http://www.w3.org/2000/svg">
<path fill-rule="evenodd" clip-rule="evenodd" d="M37.501 26.25V138.75C37.501 141.734 38.6862 144.595 40.796 146.705C42.9058 148.815 45.7673 150 48.751 150H97.501V136.744C94.6413 135.093 92.4064 132.544 91.1428 129.494C89.8792 126.443 89.6575 123.061 90.5121 119.871C91.3667 116.682 93.2499 113.863 95.8696 111.853C98.4892 109.843 101.699 108.753 105.001 108.753C108.303 108.753 111.513 109.843 114.132 111.853C116.752 113.863 118.635 116.682 119.49 119.871C120.344 123.061 120.123 126.443 118.859 129.494C117.596 132.544 115.361 135.093 112.501 136.744V150H131.251C134.235 150 137.096 148.815 139.206 146.705C141.316 144.595 142.501 141.734 142.501 138.75V26.25C142.501 23.2663 141.316 20.4048 139.206 18.295C137.096 16.1853 134.235 15 131.251 15H48.751C45.7673 15 42.9058 16.1853 40.796 18.295C38.6862 20.4048 37.501 23.2663 37.501 26.25ZM105.001 131.25C106.99 131.25 108.898 130.46 110.304 129.053C111.711 127.647 112.501 125.739 112.501 123.75C112.501 121.761 111.711 119.853 110.304 118.447C108.898 117.04 106.99 116.25 105.001 116.25C103.012 116.25 101.104 117.04 99.6977 118.447C98.2912 119.853 97.501 121.761 97.501 123.75C97.501 125.739 98.2912 127.647 99.6977 129.053C101.104 130.46 103.012 131.25 105.001 131.25ZM67.501 41.25C67.501 40.2554 67.8961 39.3016 68.5993 38.5983C69.3026 37.8951 70.2564 37.5 71.251 37.5H108.751C109.746 37.5 110.699 37.8951 111.403 38.5983C112.106 39.3016 112.501 40.2554 112.501 41.25C112.501 42.2446 112.106 43.1984 111.403 43.9016C110.699 44.6049 109.746 45 108.751 45H71.251C70.2564 45 69.3026 44.6049 68.5993 43.9016C67.8961 43.1984 67.501 42.2446 67.501 41.25ZM56.251 60C55.2564 60 54.3026 60.3951 53.5993 61.0983C52.8961 61.8016 52.501 62.7554 52.501 63.75C52.501 64.7446 52.8961 65.6984 53.5993 66.4016C54.3026 67.1049 55.2564 67.5 56.251 67.5H123.751C124.746 67.5 125.699 67.1049 126.403 66.4016C127.106 65.6984 127.501 64.7446 127.501 63.75C127.501 62.7554 127.106 61.8016 126.403 61.0983C125.699 60.3951 124.746 60 123.751 60H56.251ZM52.501 78.75C52.501 77.7554 52.8961 76.8016 53.5993 76.0983C54.3026 75.3951 55.2564 75 56.251 75H123.751C124.746 75 125.699 75.3951 126.403 76.0983C127.106 76.8016 127.501 77.7554 127.501 78.75C127.501 79.7446 127.106 80.6984 126.403 81.4016C125.699 82.1049 124.746 82.5 123.751 82.5H56.251C55.2564 82.5 54.3026 82.1049 53.5993 81.4016C52.8961 80.6984 52.501 79.7446 52.501 78.75ZM56.251 90C55.2564 90 54.3026 90.3951 53.5993 91.0983C52.8961 91.8016 52.501 92.7554 52.501 93.75C52.501 94.7446 52.8961 95.6984 53.5993 96.4016C54.3026 97.1049 55.2564 97.5 56.251 97.5H123.751C124.746 97.5 125.699 97.1049 126.403 96.4016C127.106 95.6984 127.501 94.7446 127.501 93.75C127.501 92.7554 127.106 91.8016 126.403 91.0983C125.699 90.3951 124.746 90 123.751 90H56.251Z" fill="#202122"/>
<path d="M97.501 165V150H112.501V165L105.001 159.375L97.501 165Z" fill="#202122"/>
<circle cx="105.001" cy="124" r="8" fill="#00B628"/>
</svg>
