<svg width="16" height="15" viewBox="0 0 16 15" fill="none" xmlns="http://www.w3.org/2000/svg">
<path opacity="0.3" d="M1.58331 3.16675H9.57915C9.75332 4.01383 10.2046 4.75008 10.8221 5.31216L7.91665 7.12508L1.58331 3.16675ZM1.58331 4.75008V12.6667H14.25V6.25425C13.5354 6.40074 12.7939 6.34033 12.1125 6.08008L7.91665 8.70841L1.58331 4.75008Z" fill="#4ECB71" fill-opacity="0.65"/>
<path d="M14.25 6.25416C14.8358 6.13541 15.3742 5.87416 15.8333 5.52583V12.6667C15.8333 13.5375 15.1208 14.25 14.25 14.25H1.58333C0.7125 14.25 0 13.5375 0 12.6667V3.16666C0 2.29583 0.7125 1.58333 1.58333 1.58333H9.57917C9.53167 1.83667 9.5 2.10583 9.5 2.375C9.5 2.64417 9.53167 2.91333 9.57917 3.16666H1.58333L7.91667 7.125L10.8221 5.31208C11.1942 5.6525 11.6296 5.91375 12.1125 6.08791L7.91667 8.70833L1.58333 4.75V12.6667H14.25V6.25416ZM11.0833 2.375C11.0833 3.68916 12.1442 4.75 13.4583 4.75C14.7725 4.75 15.8333 3.68916 15.8333 2.375C15.8333 1.06083 14.7725 0 13.4583 0C12.1442 0 11.0833 1.06083 11.0833 2.375Z" fill="#4ECB71"/>
</svg>
