<svg width="40" height="40" viewBox="0 0 40 40" fill="none" xmlns="http://www.w3.org/2000/svg">
<path d="M33.3344 30.0003H30.001V15.417L20.001 21.667L10.001 15.417V30.0003H6.66768V10.0003H8.66768L20.001 17.0837L31.3343 10.0003H33.3344V30.0003ZM33.3344 6.66699H6.66768C4.81768 6.66699 3.33435 8.15033 3.33435 10.0003V30.0003C3.33435 30.8844 3.68554 31.7322 4.31066 32.3573C4.93578 32.9825 5.78363 33.3337 6.66768 33.3337H33.3344C34.2184 33.3337 35.0662 32.9825 35.6914 32.3573C36.3165 31.7322 36.6677 30.8844 36.6677 30.0003V10.0003C36.6677 9.11627 36.3165 8.26842 35.6914 7.6433C35.0662 7.01818 34.2184 6.66699 33.3344 6.66699Z" fill="#BBBBBB"/>
</svg>
