<svg width="136" height="43" viewBox="0 0 136 53" fill="none" xmlns="http://www.w3.org/2000/svg">
<path d="M19.7104 45.3018C19.5874 45.3018 19.4702 45.2783 19.3589 45.2314C19.2505 45.1816 19.1553 45.1172 19.0732 45.0381C18.9912 44.9561 18.9268 44.8608 18.8799 44.7524C18.833 44.6411 18.8096 44.5239 18.8096 44.4009V42.5991C18.8096 42.4761 18.833 42.3604 18.8799 42.252C18.9268 42.1406 18.9912 42.0454 19.0732 41.9663C19.1553 41.8843 19.2505 41.8198 19.3589 41.7729C19.4702 41.7231 19.5874 41.6982 19.7104 41.6982H22.769C22.8921 41.6982 23.0078 41.7231 23.1162 41.7729C23.2275 41.8198 23.3242 41.8843 23.4062 41.9663C23.4883 42.0454 23.5527 42.1406 23.5996 42.252C23.6465 42.3604 23.6699 42.4761 23.6699 42.5991V43.4121H22.769V42.5991H19.7104V44.4009H22.769C22.8921 44.4009 23.0078 44.4243 23.1162 44.4712C23.2275 44.5181 23.3242 44.5825 23.4062 44.6646C23.4883 44.7466 23.5527 44.8433 23.5996 44.9546C23.6465 45.063 23.6699 45.1787 23.6699 45.3018V47.0991C23.6699 47.2222 23.6465 47.3394 23.5996 47.4507C23.5527 47.5591 23.4883 47.6543 23.4062 47.7363C23.3242 47.8184 23.2275 47.8828 23.1162 47.9297C23.0078 47.9766 22.8921 48 22.769 48H19.6226C19.4995 48 19.3823 47.9766 19.271 47.9297C19.1626 47.8828 19.0674 47.8184 18.9854 47.7363C18.9033 47.6543 18.8389 47.5591 18.792 47.4507C18.7451 47.3394 18.7217 47.2222 18.7217 47.0991V46.2905H19.6226V47.0991H22.769V45.3018H19.7104ZM29.1675 46.1016H26.0693V47.1343H29.1675V48H26.0693C25.9521 48 25.8408 47.978 25.7354 47.9341C25.6299 47.8872 25.5376 47.8257 25.4585 47.7495C25.3823 47.6704 25.3208 47.5781 25.2739 47.4727C25.23 47.3672 25.208 47.2544 25.208 47.1343V44.1855C25.208 44.0654 25.23 43.9526 25.2739 43.8472C25.3208 43.7417 25.3823 43.6509 25.4585 43.5747C25.5376 43.4956 25.6299 43.4341 25.7354 43.3901C25.8408 43.3433 25.9521 43.3198 26.0693 43.3198H28.3018C28.4219 43.3198 28.5347 43.3433 28.6401 43.3901C28.7456 43.4341 28.8364 43.4956 28.9126 43.5747C28.9917 43.6509 29.0532 43.7417 29.0972 43.8472C29.144 43.9526 29.1675 44.0654 29.1675 44.1855V46.1016ZM26.0693 44.1855V45.2358H28.3018V44.1855H26.0693ZM30.6133 44.1855C30.6133 44.0654 30.6353 43.9526 30.6792 43.8472C30.7261 43.7417 30.7876 43.6509 30.8638 43.5747C30.9429 43.4956 31.0352 43.4341 31.1406 43.3901C31.2461 43.3433 31.3574 43.3198 31.4746 43.3198H33.0259C33.1401 43.3198 33.2485 43.3418 33.3511 43.3857C33.4536 43.4268 33.543 43.4854 33.6191 43.5615C33.6982 43.6348 33.7612 43.7227 33.8081 43.8252C33.8579 43.9248 33.8843 44.0317 33.8872 44.146V43.3198H34.7529V49.0239C34.7529 49.144 34.7295 49.2568 34.6826 49.3623C34.6387 49.4678 34.5771 49.5586 34.498 49.6348C34.4219 49.7139 34.3311 49.7754 34.2256 49.8193C34.1201 49.8662 34.0073 49.8896 33.8872 49.8896H31.1538V49.0239H33.8872V47.8198H31.4746C31.3574 47.8198 31.2461 47.7979 31.1406 47.7539C31.0352 47.707 30.9429 47.6455 30.8638 47.5693C30.7876 47.4902 30.7261 47.3979 30.6792 47.2925C30.6353 47.187 30.6133 47.0742 30.6133 46.9541V44.1855ZM33.8872 46.9541V44.1855H31.4746V46.9541H33.8872ZM36.1943 43.3198H37.0557V47.1343H39.4683V43.3198H40.334V48H39.4683V47.209C39.4595 47.3174 39.4302 47.4199 39.3804 47.5166C39.3306 47.6133 39.2661 47.6982 39.187 47.7715C39.1108 47.8418 39.0229 47.8975 38.9233 47.9385C38.8237 47.9795 38.7183 48 38.6069 48H37.0557C36.9385 48 36.8271 47.978 36.7217 47.9341C36.6162 47.8872 36.5239 47.8257 36.4448 47.7495C36.3687 47.6704 36.3071 47.5781 36.2603 47.4727C36.2163 47.3672 36.1943 47.2544 36.1943 47.1343V43.3198ZM42.6367 44.1855V48H41.7754V43.3198H42.6367V44.146C42.6426 44.0317 42.6689 43.9248 42.7158 43.8252C42.7627 43.7227 42.8242 43.6348 42.9004 43.5615C42.9795 43.4854 43.0703 43.4268 43.1729 43.3857C43.2754 43.3418 43.3853 43.3198 43.5024 43.3198H44.4209C44.541 43.3198 44.6523 43.3433 44.7549 43.3901C44.8604 43.4341 44.9526 43.4956 45.0317 43.5747C45.1108 43.6509 45.1724 43.7417 45.2163 43.8472C45.2632 43.9526 45.2866 44.0654 45.2866 44.1855V44.9766H44.4209V44.1855H42.6367ZM46.3633 45.9565C46.3633 45.8364 46.3853 45.7251 46.4292 45.6226C46.4761 45.5171 46.5376 45.4248 46.6138 45.3457C46.6929 45.2666 46.7852 45.2051 46.8906 45.1611C46.9961 45.1143 47.1074 45.0908 47.2246 45.0908H49.457V44.1855H46.6313V43.3198H49.457C49.5771 43.3198 49.6899 43.3433 49.7954 43.3901C49.9009 43.4341 49.9917 43.4956 50.0679 43.5747C50.147 43.6509 50.2085 43.7417 50.2524 43.8472C50.2993 43.9526 50.3228 44.0654 50.3228 44.1855V48H49.457V47.209C49.4482 47.3174 49.4189 47.4199 49.3691 47.5166C49.3193 47.6133 49.2549 47.6982 49.1758 47.7715C49.0996 47.8418 49.0117 47.8975 48.9121 47.9385C48.8125 47.9795 48.707 48 48.5957 48H47.2246C47.1074 48 46.9961 47.978 46.8906 47.9341C46.7852 47.8872 46.6929 47.8257 46.6138 47.7495C46.5376 47.6704 46.4761 47.5781 46.4292 47.4727C46.3853 47.3672 46.3633 47.2544 46.3633 47.1343V45.9565ZM47.2246 47.1343H49.457V45.9565H47.2246V47.1343ZM55.9082 48H55.0425V44.1855H52.6299V48H51.7686V43.3198H52.6299V44.146C52.6357 44.0317 52.6621 43.9248 52.709 43.8252C52.7559 43.7227 52.8174 43.6348 52.8936 43.5615C52.9727 43.4854 53.0635 43.4268 53.166 43.3857C53.2686 43.3418 53.3784 43.3198 53.4956 43.3198H55.0425C55.1626 43.3198 55.2754 43.3433 55.3809 43.3901C55.4863 43.4341 55.5771 43.4956 55.6533 43.5747C55.7324 43.6509 55.7939 43.7417 55.8379 43.8472C55.8848 43.9526 55.9082 44.0654 55.9082 44.1855V48ZM58.4219 49.0151L59.147 48H58.2109C58.0938 48 57.9824 47.978 57.877 47.9341C57.7715 47.8872 57.6792 47.8257 57.6001 47.7495C57.5239 47.6704 57.4624 47.5781 57.4155 47.4727C57.3716 47.3672 57.3496 47.2544 57.3496 47.1343V44.1855C57.3496 44.0654 57.3716 43.9526 57.4155 43.8472C57.4624 43.7417 57.5239 43.6509 57.6001 43.5747C57.6792 43.4956 57.7715 43.4341 57.877 43.3901C57.9824 43.3433 58.0938 43.3198 58.2109 43.3198H60.4434C60.5635 43.3198 60.6763 43.3433 60.7817 43.3901C60.8872 43.4341 60.978 43.4956 61.0542 43.5747C61.1333 43.6509 61.1948 43.7417 61.2388 43.8472C61.2856 43.9526 61.3091 44.0654 61.3091 44.1855V44.9766H60.4434V44.1855H58.2109V47.1343H60.4434V46.3433H61.3091V47.1343C61.3091 47.2544 61.2856 47.3672 61.2388 47.4727C61.1948 47.5781 61.1333 47.6704 61.0542 47.7495C60.978 47.8257 60.8872 47.8872 60.7817 47.9341C60.6763 47.978 60.5635 48 60.4434 48H59.7886L59.5073 48.4043C59.5923 48.4043 59.6714 48.4204 59.7446 48.4526C59.8208 48.4849 59.8867 48.5288 59.9424 48.5845C59.998 48.6401 60.042 48.7046 60.0742 48.7778C60.1064 48.854 60.1226 48.9331 60.1226 49.0151V49.7007C60.1226 49.7856 60.1064 49.8647 60.0742 49.938C60.042 50.0112 59.998 50.0757 59.9424 50.1313C59.8867 50.187 59.8208 50.231 59.7446 50.2632C59.6714 50.2954 59.5923 50.3115 59.5073 50.3115H58.3472V49.7007H59.5073V49.0151H58.4219ZM62.7549 45.9565C62.7549 45.8364 62.7769 45.7251 62.8208 45.6226C62.8677 45.5171 62.9292 45.4248 63.0054 45.3457C63.0845 45.2666 63.1768 45.2051 63.2822 45.1611C63.3877 45.1143 63.499 45.0908 63.6162 45.0908H65.8486V44.1855H63.0229V43.3198H65.8486C65.9688 43.3198 66.0815 43.3433 66.187 43.3901C66.2925 43.4341 66.3833 43.4956 66.4595 43.5747C66.5386 43.6509 66.6001 43.7417 66.644 43.8472C66.6909 43.9526 66.7144 44.0654 66.7144 44.1855V48H65.8486V47.209C65.8398 47.3174 65.8105 47.4199 65.7607 47.5166C65.7109 47.6133 65.6465 47.6982 65.5674 47.7715C65.4912 47.8418 65.4033 47.8975 65.3037 47.9385C65.2041 47.9795 65.0986 48 64.9873 48H63.6162C63.499 48 63.3877 47.978 63.2822 47.9341C63.1768 47.8872 63.0845 47.8257 63.0054 47.7495C62.9292 47.6704 62.8677 47.5781 62.8208 47.4727C62.7769 47.3672 62.7549 47.2544 62.7549 47.1343V45.9565ZM63.6162 47.1343H65.8486V45.9565H63.6162V47.1343ZM70.9463 41.6982H75.5386V42.5991H71.8472V44.4009H74.998V45.3018H71.8472V47.0991H75.5386V48H70.9463V41.6982ZM77.6611 41.5181V48H76.7998V41.5181H77.6611ZM83.062 46.1016H79.9639V47.1343H83.062V48H79.9639C79.8467 48 79.7354 47.978 79.6299 47.9341C79.5244 47.8872 79.4321 47.8257 79.353 47.7495C79.2769 47.6704 79.2153 47.5781 79.1685 47.4727C79.1245 47.3672 79.1025 47.2544 79.1025 47.1343V44.1855C79.1025 44.0654 79.1245 43.9526 79.1685 43.8472C79.2153 43.7417 79.2769 43.6509 79.353 43.5747C79.4321 43.4956 79.5244 43.4341 79.6299 43.3901C79.7354 43.3433 79.8467 43.3198 79.9639 43.3198H82.1963C82.3164 43.3198 82.4292 43.3433 82.5347 43.3901C82.6401 43.4341 82.731 43.4956 82.8071 43.5747C82.8862 43.6509 82.9478 43.7417 82.9917 43.8472C83.0386 43.9526 83.062 44.0654 83.062 44.1855V46.1016ZM79.9639 44.1855V45.2358H82.1963V44.1855H79.9639ZM84.2354 43.3198H85.3779V41.8784H86.2437V43.3198H87.7817V44.1855H86.2437V47.1343H87.7817V48H86.2437C86.1265 48 86.0151 47.978 85.9097 47.9341C85.8042 47.8872 85.7119 47.8257 85.6328 47.7495C85.5537 47.6704 85.4907 47.5781 85.4438 47.4727C85.3999 47.3672 85.3779 47.2544 85.3779 47.1343V44.1855H84.2354V43.3198ZM90.0889 44.1855V48H89.2275V43.3198H90.0889V44.146C90.0947 44.0317 90.1211 43.9248 90.168 43.8252C90.2148 43.7227 90.2764 43.6348 90.3525 43.5615C90.4316 43.4854 90.5225 43.4268 90.625 43.3857C90.7275 43.3418 90.8374 43.3198 90.9546 43.3198H91.873C91.9932 43.3198 92.1045 43.3433 92.207 43.3901C92.3125 43.4341 92.4048 43.4956 92.4839 43.5747C92.563 43.6509 92.6245 43.7417 92.6685 43.8472C92.7153 43.9526 92.7388 44.0654 92.7388 44.1855V44.9766H91.873V44.1855H90.0889ZM97.8628 47.1343C97.8628 47.2544 97.8394 47.3672 97.7925 47.4727C97.7485 47.5781 97.687 47.6704 97.6079 47.7495C97.5317 47.8257 97.4409 47.8872 97.3354 47.9341C97.2329 47.978 97.1216 48 97.0015 48H94.6768C94.5596 48 94.4482 47.978 94.3428 47.9341C94.2373 47.8872 94.145 47.8257 94.0659 47.7495C93.9897 47.6704 93.9282 47.5781 93.8813 47.4727C93.8374 47.3672 93.8154 47.2544 93.8154 47.1343V44.1855C93.8154 44.0654 93.8374 43.9526 93.8813 43.8472C93.9282 43.7417 93.9897 43.6509 94.0659 43.5747C94.145 43.4956 94.2373 43.4341 94.3428 43.3901C94.4482 43.3433 94.5596 43.3198 94.6768 43.3198H97.0015C97.1216 43.3198 97.2329 43.3433 97.3354 43.3901C97.4409 43.4341 97.5317 43.4956 97.6079 43.5747C97.687 43.6509 97.7485 43.7417 97.7925 43.8472C97.8394 43.9526 97.8628 44.0654 97.8628 44.1855V47.1343ZM94.6768 44.1855V47.1343H97.0015V44.1855H94.6768ZM97.4233 42.5112H96.5049L95.8413 41.918L95.1733 42.5112H94.2549L95.3008 41.4302H96.3818L97.4233 42.5112ZM103.448 48H102.583V44.1855H100.17V48H99.3086V43.3198H100.17V44.146C100.176 44.0317 100.202 43.9248 100.249 43.8252C100.296 43.7227 100.357 43.6348 100.434 43.5615C100.513 43.4854 100.604 43.4268 100.706 43.3857C100.809 43.3418 100.918 43.3198 101.036 43.3198H102.583C102.703 43.3198 102.815 43.3433 102.921 43.3901C103.026 43.4341 103.117 43.4956 103.193 43.5747C103.272 43.6509 103.334 43.7417 103.378 43.8472C103.425 43.9526 103.448 44.0654 103.448 44.1855V48ZM105.799 43.3198V48H104.934V43.3198H105.799ZM104.89 41.5181H105.843V42.4189H104.89V41.5181ZM108.15 44.1855V47.1343H110.383V46.3433H111.249V47.1343C111.249 47.2544 111.225 47.3672 111.178 47.4727C111.134 47.5781 111.073 47.6704 110.994 47.7495C110.917 47.8257 110.827 47.8872 110.721 47.9341C110.616 47.978 110.503 48 110.383 48H108.15C108.033 48 107.922 47.978 107.816 47.9341C107.711 47.8872 107.619 47.8257 107.54 47.7495C107.463 47.6704 107.402 47.5781 107.355 47.4727C107.311 47.3672 107.289 47.2544 107.289 47.1343V44.1855C107.289 44.0654 107.311 43.9526 107.355 43.8472C107.402 43.7417 107.463 43.6509 107.54 43.5747C107.619 43.4956 107.711 43.4341 107.816 43.3901C107.922 43.3433 108.033 43.3198 108.15 43.3198H110.383C110.503 43.3198 110.616 43.3433 110.721 43.3901C110.827 43.4341 110.917 43.4956 110.994 43.5747C111.073 43.6509 111.134 43.7417 111.178 43.8472C111.225 43.9526 111.249 44.0654 111.249 44.1855V44.9766H110.383V44.1855H108.15ZM112.694 45.9565C112.694 45.8364 112.716 45.7251 112.76 45.6226C112.807 45.5171 112.869 45.4248 112.945 45.3457C113.024 45.2666 113.116 45.2051 113.222 45.1611C113.327 45.1143 113.438 45.0908 113.556 45.0908H115.788V44.1855H112.962V43.3198H115.788C115.908 43.3198 116.021 43.3433 116.126 43.3901C116.232 43.4341 116.323 43.4956 116.399 43.5747C116.478 43.6509 116.54 43.7417 116.583 43.8472C116.63 43.9526 116.654 44.0654 116.654 44.1855V48H115.788V47.209C115.779 47.3174 115.75 47.4199 115.7 47.5166C115.65 47.6133 115.586 47.6982 115.507 47.7715C115.431 47.8418 115.343 47.8975 115.243 47.9385C115.144 47.9795 115.038 48 114.927 48H113.556C113.438 48 113.327 47.978 113.222 47.9341C113.116 47.8872 113.024 47.8257 112.945 47.7495C112.869 47.6704 112.807 47.5781 112.76 47.4727C112.716 47.3672 112.694 47.2544 112.694 47.1343V45.9565ZM113.556 47.1343H115.788V45.9565H113.556V47.1343Z" fill="white"/>
<path d="M16.9932 37L6.19238 8.99219H10.4893L19.2002 32.0391L27.9307 8.99219H32.208L21.4072 37H16.9932ZM40.9971 8.99219V37H36.9932V8.99219H40.9971ZM52.208 25.0078C51.6611 25.0078 51.1403 24.9036 50.6455 24.6953C50.1637 24.474 49.7406 24.1875 49.376 23.8359C49.0114 23.4714 48.7249 23.0482 48.5166 22.5664C48.3083 22.0716 48.2041 21.5508 48.2041 21.0039V12.9961C48.2041 12.4492 48.3083 11.9349 48.5166 11.4531C48.7249 10.9583 49.0114 10.5352 49.376 10.1836C49.7406 9.81901 50.1637 9.53255 50.6455 9.32422C51.1403 9.10286 51.6611 8.99219 52.208 8.99219H65.8018C66.3486 8.99219 66.863 9.10286 67.3447 9.32422C67.8395 9.53255 68.2692 9.81901 68.6338 10.1836C68.9984 10.5352 69.2848 10.9583 69.4932 11.4531C69.7015 11.9349 69.8057 12.4492 69.8057 12.9961V16.6094H65.8018V12.9961H52.208V21.0039H65.8018C66.3486 21.0039 66.863 21.1081 67.3447 21.3164C67.8395 21.5247 68.2692 21.8112 68.6338 22.1758C68.9984 22.5404 69.2848 22.9701 69.4932 23.4648C69.7015 23.9466 69.8057 24.4609 69.8057 25.0078V32.9961C69.8057 33.543 69.7015 34.0638 69.4932 34.5586C69.2848 35.0404 68.9984 35.4635 68.6338 35.8281C68.2692 36.1927 67.8395 36.4792 67.3447 36.6875C66.863 36.8958 66.3486 37 65.8018 37H51.8174C51.2705 37 50.7497 36.8958 50.2549 36.6875C49.7731 36.4792 49.3499 36.1927 48.9854 35.8281C48.6208 35.4635 48.3343 35.0404 48.126 34.5586C47.9176 34.0638 47.8135 33.543 47.8135 32.9961V29.4023H51.8174V32.9961H65.8018V25.0078H52.208ZM89.4346 8.99219L100.235 37H96.2314L93.751 30.5547H81.1143L78.6338 37H74.6299L85.4307 8.99219H89.4346ZM82.6377 26.5508H92.208L87.4424 14.207L82.6377 26.5508ZM79.8057 5.35938C79.8057 4.66927 79.9229 4.02474 80.1572 3.42578C80.3916 2.82682 80.7171 2.30599 81.1338 1.86328C81.5505 1.42057 82.0452 1.07552 82.6182 0.828125C83.2041 0.567708 83.8486 0.4375 84.5518 0.4375C85.2809 0.4375 85.8994 0.541667 86.4072 0.75C86.915 0.945312 87.3838 1.16667 87.8135 1.41406C88.2432 1.66146 88.6598 1.88932 89.0635 2.09766C89.4801 2.29297 89.9489 2.39062 90.4697 2.39062C91.0426 2.39062 91.4984 2.19531 91.8369 1.80469C92.1755 1.41406 92.3643 0.958333 92.4033 0.4375H95.0791C95.0661 1.1276 94.9424 1.77214 94.708 2.37109C94.4736 2.97005 94.1481 3.49089 93.7314 3.93359C93.3148 4.3763 92.8135 4.72786 92.2275 4.98828C91.6546 5.23568 91.0166 5.35938 90.3135 5.35938C89.5843 5.35938 88.9658 5.26172 88.458 5.06641C87.9502 4.85807 87.4814 4.63021 87.0518 4.38281C86.6221 4.13542 86.1989 3.91406 85.7822 3.71875C85.3786 3.51042 84.9163 3.40625 84.3955 3.40625C83.8356 3.40625 83.3864 3.60156 83.0479 3.99219C82.7093 4.38281 82.5205 4.83854 82.4814 5.35938H79.8057Z" fill="white"/>
<path d="M0.000976562 52H136.001V53H0.000976562V52Z" fill="#00B628"/>
<ellipse cx="122.924" cy="14.9209" rx="1.15384" ry="1.13155" fill="#F31E1E"/>
<mask id="path-5-outside-1_65_17" maskUnits="userSpaceOnUse" x="100.001" y="6" width="32" height="31" fill="black">
<rect fill="white" x="100.001" y="6" width="32" height="31"/>
<path d="M131.001 21.7101C131.001 29.8343 124.285 36.4203 116.001 36.4203C107.717 36.4203 101.001 29.8343 101.001 21.7101C101.001 13.586 107.717 7 116.001 7C124.285 7 131.001 13.586 131.001 21.7101ZM103.281 21.7101C103.281 28.5996 108.976 34.1846 116.001 34.1846C123.026 34.1846 128.721 28.5996 128.721 21.7101C128.721 14.8207 123.026 9.23566 116.001 9.23566C108.976 9.23566 103.281 14.8207 103.281 21.7101Z"/>
</mask>
<path d="M131.001 21.7101C131.001 29.8343 124.285 36.4203 116.001 36.4203C107.717 36.4203 101.001 29.8343 101.001 21.7101C101.001 13.586 107.717 7 116.001 7C124.285 7 131.001 13.586 131.001 21.7101ZM103.281 21.7101C103.281 28.5996 108.976 34.1846 116.001 34.1846C123.026 34.1846 128.721 28.5996 128.721 21.7101C128.721 14.8207 123.026 9.23566 116.001 9.23566C108.976 9.23566 103.281 14.8207 103.281 21.7101Z" fill="white"/>
<path d="M131.001 21.7101C131.001 29.8343 124.285 36.4203 116.001 36.4203C107.717 36.4203 101.001 29.8343 101.001 21.7101C101.001 13.586 107.717 7 116.001 7C124.285 7 131.001 13.586 131.001 21.7101ZM103.281 21.7101C103.281 28.5996 108.976 34.1846 116.001 34.1846C123.026 34.1846 128.721 28.5996 128.721 21.7101C128.721 14.8207 123.026 9.23566 116.001 9.23566C108.976 9.23566 103.281 14.8207 103.281 21.7101Z" stroke="#FDFDFD" stroke-width="0.8" mask="url(#path-5-outside-1_65_17)"/>
<path opacity="0.5" d="M114.043 24.4082C114.846 24.4082 115.496 23.7702 115.496 22.9832C115.496 22.1961 114.846 21.5581 114.043 21.5581C113.24 21.5581 112.59 22.1961 112.59 22.9832C112.59 23.7702 113.24 24.4082 114.043 24.4082Z" fill="#F5F5F5"/>
<g filter="url(#filter0_d_65_17)">
<path d="M115.449 28.8672C119.565 28.8672 122.902 25.5948 122.902 21.5581C122.902 17.5214 119.565 14.249 115.449 14.249C111.333 14.249 107.996 17.5214 107.996 21.5581C107.996 25.5948 111.333 28.8672 115.449 28.8672Z" fill="#545B60"/>
<path d="M115.449 25.5113C117.675 25.5113 119.48 23.7413 119.48 21.5579C119.48 19.3745 117.675 17.6046 115.449 17.6046C113.223 17.6046 111.418 19.3745 111.418 21.5579C111.418 23.7413 113.223 25.5113 115.449 25.5113Z" fill="#212528"/>
<path opacity="0.5" d="M120.934 18.4781C120.934 19.7193 119.902 20.7306 118.637 20.7306C117.371 20.7306 116.34 19.7193 116.34 18.4781C116.34 17.2369 117.371 16.2256 118.637 16.2256C119.902 16.1796 120.934 17.2369 120.934 18.4781Z" fill="white"/>
<path opacity="0.5" d="M111.465 26.3849C111.957 26.3849 112.355 25.9938 112.355 25.5114C112.355 25.0291 111.957 24.638 111.465 24.638C110.973 24.638 110.574 25.0291 110.574 25.5114C110.574 25.9938 110.973 26.3849 111.465 26.3849Z" fill="white"/>
</g>
<defs>
<filter id="filter0_d_65_17" x="103.996" y="14.249" width="22.9062" height="22.6182" filterUnits="userSpaceOnUse" color-interpolation-filters="sRGB">
<feFlood flood-opacity="0" result="BackgroundImageFix"/>
<feColorMatrix in="SourceAlpha" type="matrix" values="0 0 0 0 0 0 0 0 0 0 0 0 0 0 0 0 0 0 127 0" result="hardAlpha"/>
<feOffset dy="4"/>
<feGaussianBlur stdDeviation="2"/>
<feComposite in2="hardAlpha" operator="out"/>
<feColorMatrix type="matrix" values="0 0 0 0 0 0 0 0 0 0 0 0 0 0 0 0 0 0 0.25 0"/>
<feBlend mode="normal" in2="BackgroundImageFix" result="effect1_dropShadow_65_17"/>
<feBlend mode="normal" in="SourceGraphic" in2="effect1_dropShadow_65_17" result="shape"/>
</filter>
</defs>
</svg>
