<svg width="50" height="50" viewBox="0 0 40 40" fill="none" xmlns="http://www.w3.org/2000/svg">
<path d="M15.9375 17.2656H34.6875C34.8594 17.2656 35 17.125 35 16.9531V14.7656C35 14.5938 34.8594 14.4531 34.6875 14.4531H15.9375C15.7656 14.4531 15.625 14.5938 15.625 14.7656V16.9531C15.625 17.125 15.7656 17.2656 15.9375 17.2656ZM15.625 25.2344C15.625 25.4062 15.7656 25.5469 15.9375 25.5469H34.6875C34.8594 25.5469 35 25.4062 35 25.2344V23.0469C35 22.875 34.8594 22.7344 34.6875 22.7344H15.9375C15.7656 22.7344 15.625 22.875 15.625 23.0469V25.2344ZM35.3125 6.25H4.6875C4.51562 6.25 4.375 6.39062 4.375 6.5625V8.75C4.375 8.92188 4.51562 9.0625 4.6875 9.0625H35.3125C35.4844 9.0625 35.625 8.92188 35.625 8.75V6.5625C35.625 6.39062 35.4844 6.25 35.3125 6.25ZM35.3125 30.9375H4.6875C4.51562 30.9375 4.375 31.0781 4.375 31.25V33.4375C4.375 33.6094 4.51562 33.75 4.6875 33.75H35.3125C35.4844 33.75 35.625 33.6094 35.625 33.4375V31.25C35.625 31.0781 35.4844 30.9375 35.3125 30.9375Z" fill="#00B628"/>
<path d="M4.41395 20.3271C4.22932 20.2086 4.23012 19.9385 4.41544 19.8212L11.8212 15.1306C12.0213 15.0039 12.2824 15.1481 12.2817 15.3849L12.254 24.8096C12.2533 25.0464 11.9913 25.1891 11.792 25.0612L4.41395 20.3271Z" fill="white"/>
</svg>
