<svg width="180" height="180" viewBox="0 0 180 180" fill="none" xmlns="http://www.w3.org/2000/svg">
<path d="M60.001 80.7H55.651C49.7148 80.4855 43.7978 81.4932 38.2673 83.6607C32.7368 85.8282 27.7107 89.1092 23.501 93.3L22.301 94.7V136.1H42.701V112.6L45.451 109.5L46.701 108.05C53.2107 101.363 61.3149 96.4415 70.251 93.75C65.7754 90.3473 62.2465 85.8544 60.001 80.7Z" fill="#202122"/>
<path d="M156.701 93.15C152.491 88.9592 147.465 85.6782 141.935 83.5107C136.404 81.3432 130.487 80.3355 124.551 80.55C122.73 80.5552 120.911 80.6553 119.101 80.85C116.811 85.6845 113.379 89.8889 109.101 93.1C118.641 95.7393 127.283 100.924 134.101 108.1L135.351 109.5L138.051 112.6V136.15H157.751V94.55L156.701 93.15Z" fill="#202122"/>
<path d="M55.501 70.95H57.0509C56.3308 64.7662 57.4158 58.5062 60.1751 52.9255C62.9344 47.3448 67.25 42.682 72.601 39.5C70.6613 36.5367 67.9853 34.128 64.835 32.5097C61.6847 30.8914 58.1681 30.119 54.6296 30.2681C51.0911 30.4173 47.652 31.4828 44.649 33.3604C41.6461 35.238 39.1822 37.8633 37.4987 40.9792C35.8152 44.0952 34.9698 47.5949 35.0453 51.1358C35.1208 54.6766 36.1145 58.1371 37.9292 61.1785C39.744 64.2199 42.3174 66.7379 45.3977 68.4858C48.4779 70.2338 51.9593 71.1518 55.501 71.15V70.95Z" fill="#202122"/>
<path d="M89.351 89.6C101.695 89.6 111.701 79.5936 111.701 67.25C111.701 54.9065 101.695 44.9 89.351 44.9C77.0074 44.9 67.001 54.9065 67.001 67.25C67.001 79.5936 77.0074 89.6 89.351 89.6Z" fill="#202122"/>
<path d="M90.551 101.5C84.0212 101.236 77.5056 102.296 71.3962 104.617C65.2867 106.937 59.7098 110.469 55.001 115L53.751 116.4V148.05C53.7705 149.081 53.9929 150.098 54.4055 151.043C54.8182 151.988 55.4129 152.842 56.1558 153.557C56.8987 154.272 57.7753 154.834 58.7353 155.21C59.6953 155.586 60.7201 155.77 61.751 155.75H119.201C120.232 155.77 121.257 155.586 122.217 155.21C123.177 154.834 124.053 154.272 124.796 153.557C125.539 152.842 126.134 151.988 126.546 151.043C126.959 150.098 127.181 149.081 127.201 148.05V116.5L126.001 115C121.323 110.455 115.765 106.913 109.669 104.591C103.573 102.27 97.0678 101.218 90.551 101.5Z" fill="#202122"/>
<path d="M122.151 67.2C122.212 68.3492 122.212 69.5009 122.151 70.65C123.11 70.8022 124.08 70.8857 125.051 70.9001H126.001C130.651 70.7304 135.1 68.9648 138.601 65.9C131.728 63.6689 125.646 59.4995 121.087 53.8935C116.527 48.2874 113.685 41.4834 112.901 34.3C110.699 35.8224 108.814 37.7583 107.351 40C111.876 42.9547 115.598 46.9866 118.181 51.7339C120.764 56.4812 122.128 61.7955 122.151 67.2Z" fill="#202122"/>
<path d="M150.001 55C163.808 55 175.001 43.8071 175.001 30C175.001 16.1929 163.808 5 150.001 5C136.194 5 125.001 16.1929 125.001 30C125.001 43.8071 136.194 55 150.001 55Z" fill="#00B628"/>
</svg>
