<svg width="33" height="33" viewBox="0 0 33 33" fill="none" xmlns="http://www.w3.org/2000/svg">
<path d="M30.4723 3.13811C30.2074 2.9273 29.9035 2.77075 29.5781 2.67739C29.2526 2.58404 28.9119 2.5557 28.5755 2.59401C28.2391 2.63231 27.9135 2.7365 27.6174 2.90064C27.3213 3.06477 27.0603 3.28563 26.8496 3.55061L16.501 16.5691L12.8834 12.0172C12.4578 11.4818 11.837 11.1374 11.1575 11.0597C10.478 10.9821 9.79544 11.1776 9.26005 11.6031C8.72467 12.0287 8.38027 12.6495 8.30262 13.329C8.22497 14.0085 8.42043 14.691 8.84601 15.2264L14.4818 22.3163C14.9706 22.9319 15.7141 23.2887 16.4999 23.2887C17.2858 23.2887 18.0283 22.9278 18.5181 22.3152L30.8869 6.75986C31.7738 5.64611 31.5882 4.02292 30.4723 3.13708V3.13811ZM25.2666 25.2656H7.73535V7.73439H20.89L23.3495 4.64064H6.18848C5.33254 4.64064 4.6416 5.33158 4.6416 6.18751V26.8125C4.6416 27.6664 5.33254 28.3594 6.18848 28.3594H26.8135C27.2237 28.3594 27.6172 28.1964 27.9073 27.9063C28.1974 27.6162 28.3603 27.2228 28.3603 26.8125V13.2516L25.2666 17.1435V25.2656Z" fill="#00B628"/>
</svg>
