<svg width="368" height="131" viewBox="0 0 368 131" fill="none" xmlns="http://www.w3.org/2000/svg">
<ellipse cx="341.515" cy="41.3297" rx="3.54416" ry="3.47567" fill="#F31E1E"/>
<mask id="path-2-outside-1_236_27" maskUnits="userSpaceOnUse" x="272.176" y="15" width="96" height="94" fill="black">
<rect fill="white" x="272.176" y="15" width="96" height="94"/>
<path d="M366.325 62.1838C366.325 87.1382 345.697 107.368 320.25 107.368C294.804 107.368 274.176 87.1382 274.176 62.1838C274.176 37.2295 294.804 17 320.25 17C345.697 17 366.325 37.2295 366.325 62.1838ZM281.179 62.1838C281.179 83.3456 298.672 100.501 320.25 100.501C341.829 100.501 359.322 83.3456 359.322 62.1838C359.322 41.0221 341.829 23.8671 320.25 23.8671C298.672 23.8671 281.179 41.0221 281.179 62.1838Z"/>
</mask>
<path d="M366.325 62.1838C366.325 87.1382 345.697 107.368 320.25 107.368C294.804 107.368 274.176 87.1382 274.176 62.1838C274.176 37.2295 294.804 17 320.25 17C345.697 17 366.325 37.2295 366.325 62.1838ZM281.179 62.1838C281.179 83.3456 298.672 100.501 320.25 100.501C341.829 100.501 359.322 83.3456 359.322 62.1838C359.322 41.0221 341.829 23.8671 320.25 23.8671C298.672 23.8671 281.179 41.0221 281.179 62.1838Z" fill="#202122"/>
<path d="M366.325 62.1838C366.325 87.1382 345.697 107.368 320.25 107.368C294.804 107.368 274.176 87.1382 274.176 62.1838C274.176 37.2295 294.804 17 320.25 17C345.697 17 366.325 37.2295 366.325 62.1838ZM281.179 62.1838C281.179 83.3456 298.672 100.501 320.25 100.501C341.829 100.501 359.322 83.3456 359.322 62.1838C359.322 41.0221 341.829 23.8671 320.25 23.8671C298.672 23.8671 281.179 41.0221 281.179 62.1838Z" stroke="#202122" stroke-width="3" mask="url(#path-2-outside-1_236_27)"/>
<path d="M366.325 62.1838C366.325 87.1382 345.697 107.368 320.25 107.368C294.804 107.368 274.176 87.1382 274.176 62.1838C274.176 37.2295 294.804 17 320.25 17C345.697 17 366.325 37.2295 366.325 62.1838ZM281.179 62.1838C281.179 83.3456 298.672 100.501 320.25 100.501C341.829 100.501 359.322 83.3456 359.322 62.1838C359.322 41.0221 341.829 23.8671 320.25 23.8671C298.672 23.8671 281.179 41.0221 281.179 62.1838Z" stroke="#202122" stroke-width="3" mask="url(#path-2-outside-1_236_27)"/>
<path d="M318.556 84.1675C331.199 84.1675 341.449 74.116 341.449 61.7168C341.449 49.3176 331.199 39.2661 318.556 39.2661C305.912 39.2661 295.663 49.3176 295.663 61.7168C295.663 74.116 305.912 84.1675 318.556 84.1675Z" fill="#545B60"/>
<path d="M318.556 73.8597C325.394 73.8597 330.938 68.423 330.938 61.7165C330.938 55.01 325.394 49.5733 318.556 49.5733C311.717 49.5733 306.173 55.01 306.173 61.7165C306.173 68.423 311.717 73.8597 318.556 73.8597Z" fill="#212528"/>
<path opacity="0.5" d="M335.401 52.2564C335.401 56.0688 332.234 59.1752 328.346 59.1752C324.459 59.1752 321.291 56.0688 321.291 52.2564C321.291 48.444 324.459 45.3376 328.346 45.3376C332.234 45.1964 335.401 48.444 335.401 52.2564Z" fill="white"/>
<path opacity="0.5" d="M306.318 76.5431C307.829 76.5431 309.053 75.3419 309.053 73.8603C309.053 72.3786 307.829 71.1775 306.318 71.1775C304.807 71.1775 303.582 72.3786 303.582 73.8603C303.582 75.3419 304.807 76.5431 306.318 76.5431Z" fill="white"/>
<path d="M33.8779 103.943L3.36572 24.8206H15.5044L40.1128 89.928L64.7764 24.8206H76.8599L46.3477 103.943H33.8779ZM101.689 24.8206V103.943H90.3779V24.8206H101.689ZM133.36 70.0647C131.815 70.0647 130.344 69.7704 128.946 69.1819C127.585 68.5566 126.389 67.7473 125.359 66.7542C124.329 65.7242 123.52 64.5287 122.932 63.1677C122.343 61.7699 122.049 60.2986 122.049 58.7537V36.1316C122.049 34.5867 122.343 33.1337 122.932 31.7727C123.52 30.3749 124.329 29.1794 125.359 28.1863C126.389 27.1563 127.585 26.3471 128.946 25.7585C130.344 25.1332 131.815 24.8206 133.36 24.8206H171.762C173.307 24.8206 174.76 25.1332 176.121 25.7585C177.519 26.3471 178.733 27.1563 179.763 28.1863C180.793 29.1794 181.602 30.3749 182.19 31.7727C182.779 33.1337 183.073 34.5867 183.073 36.1316V46.3391H171.762V36.1316H133.36V58.7537H171.762C173.307 58.7537 174.76 59.0479 176.121 59.6365C177.519 60.225 178.733 61.0343 179.763 62.0642C180.793 63.0942 181.602 64.308 182.19 65.7058C182.779 67.0668 183.073 68.5198 183.073 70.0647V92.6316C183.073 94.1765 182.779 95.6479 182.19 97.0457C181.602 98.4067 180.793 99.6021 179.763 100.632C178.733 101.662 177.519 102.471 176.121 103.06C174.76 103.648 173.307 103.943 171.762 103.943H132.256C130.711 103.943 129.24 103.648 127.842 103.06C126.481 102.471 125.286 101.662 124.256 100.632C123.226 99.6021 122.417 98.4067 121.828 97.0457C121.24 95.6479 120.945 94.1765 120.945 92.6316V82.4792H132.256V92.6316H171.762V70.0647H133.36ZM238.525 24.8206L269.037 103.943H257.726L250.719 85.7346H215.02L208.013 103.943H196.702L227.214 24.8206H238.525ZM219.324 74.4236H246.36L232.897 39.5525L219.324 74.4236ZM211.323 14.5579C211.323 12.6083 211.654 10.7875 212.316 9.09546C212.979 7.4034 213.898 5.93205 215.075 4.6814C216.252 3.43075 217.65 2.45597 219.269 1.75708C220.924 1.0214 222.745 0.653564 224.731 0.653564C226.791 0.653564 228.538 0.947835 229.973 1.53638C231.407 2.08813 232.731 2.71346 233.945 3.41235C235.159 4.11125 236.336 4.75496 237.477 5.34351C238.654 5.89526 239.978 6.17114 241.449 6.17114C243.068 6.17114 244.355 5.61938 245.312 4.51587C246.268 3.41235 246.801 2.12492 246.912 0.653564H254.471C254.434 2.60311 254.084 4.42391 253.422 6.11597C252.76 7.80802 251.841 9.27938 250.664 10.53C249.486 11.7807 248.07 12.7738 246.415 13.5095C244.797 14.2084 242.994 14.5579 241.008 14.5579C238.948 14.5579 237.201 14.282 235.766 13.7302C234.332 13.1417 233.007 12.498 231.793 11.7991C230.58 11.1002 229.384 10.4749 228.207 9.9231C227.067 9.33455 225.761 9.04028 224.29 9.04028C222.708 9.04028 221.439 9.59204 220.482 10.6956C219.526 11.7991 218.993 13.0865 218.882 14.5579H211.323Z" fill="#202122"/>
<path d="M30.1763 128H341.789V130.968H30.1763V128Z" fill="#00B628"/>
</svg>
