<svg width="300" height="295" viewBox="0 0 300 295" fill="none" xmlns="http://www.w3.org/2000/svg">
<ellipse cx="217.846" cy="80.6243" rx="11.3077" ry="11.0892" fill="#F31E1E"/>
<mask id="path-2-outside-1_134_12" maskUnits="userSpaceOnUse" x="0" y="0" width="300" height="295" fill="black">
<rect fill="white" width="300" height="295"/>
<path d="M297 147.159C297 226.776 231.186 291.319 150 291.319C68.8141 291.319 3 226.776 3 147.159C3 67.5423 68.8141 3 150 3C231.186 3 297 67.5423 297 147.159ZM25.3412 147.159C25.3412 214.676 81.1529 269.409 150 269.409C218.847 269.409 274.659 214.676 274.659 147.159C274.659 79.6426 218.847 24.9095 150 24.9095C81.1529 24.9095 25.3412 79.6426 25.3412 147.159Z"/>
</mask>
<path d="M297 147.159C297 226.776 231.186 291.319 150 291.319C68.8141 291.319 3 226.776 3 147.159C3 67.5423 68.8141 3 150 3C231.186 3 297 67.5423 297 147.159ZM25.3412 147.159C25.3412 214.676 81.1529 269.409 150 269.409C218.847 269.409 274.659 214.676 274.659 147.159C274.659 79.6426 218.847 24.9095 150 24.9095C81.1529 24.9095 25.3412 79.6426 25.3412 147.159Z" fill="white"/>
<path d="M297 147.159C297 226.776 231.186 291.319 150 291.319C68.8141 291.319 3 226.776 3 147.159C3 67.5423 68.8141 3 150 3C231.186 3 297 67.5423 297 147.159ZM25.3412 147.159C25.3412 214.676 81.1529 269.409 150 269.409C218.847 269.409 274.659 214.676 274.659 147.159C274.659 79.6426 218.847 24.9095 150 24.9095C81.1529 24.9095 25.3412 79.6426 25.3412 147.159Z" stroke="black" stroke-width="6" mask="url(#path-2-outside-1_134_12)"/>
<path opacity="0.5" d="M130.812 173.601C138.677 173.601 145.053 167.348 145.053 159.635C145.053 151.922 138.677 145.67 130.812 145.67C122.947 145.67 116.571 151.922 116.571 159.635C116.571 167.348 122.947 173.601 130.812 173.601Z" fill="#F5F5F5"/>
<path d="M144.594 217.298C184.933 217.298 217.634 185.229 217.634 145.669C217.634 106.109 184.933 74.04 144.594 74.04C104.255 74.04 71.5532 106.109 71.5532 145.669C71.5532 185.229 104.255 217.298 144.594 217.298Z" fill="#545B60"/>
<path d="M144.593 184.411C166.412 184.411 184.099 167.065 184.099 145.668C184.099 124.271 166.412 106.925 144.593 106.925C122.774 106.925 105.087 124.271 105.087 145.668C105.087 167.065 122.774 184.411 144.593 184.411Z" fill="#212528"/>
<path opacity="0.5" d="M198.34 115.486C198.34 127.649 188.233 137.56 175.83 137.56C163.427 137.56 153.321 127.649 153.321 115.486C153.321 103.322 163.427 93.4115 175.83 93.4115C188.233 92.961 198.34 103.322 198.34 115.486Z" fill="white"/>
<path opacity="0.5" d="M105.547 192.973C110.367 192.973 114.275 189.14 114.275 184.413C114.275 179.686 110.367 175.854 105.547 175.854C100.726 175.854 96.8185 179.686 96.8185 184.413C96.8185 189.14 100.726 192.973 105.547 192.973Z" fill="white"/>
</svg>
