<svg width="180" height="180" viewBox="0 0 180 180" fill="none" xmlns="http://www.w3.org/2000/svg">
<rect x="36.001" y="26" width="19" height="22" fill="#00B628"/>
<rect x="36.001" y="134" width="19" height="22" fill="#00B628"/>
<rect x="90.001" y="26" width="19" height="22" fill="#00B628"/>
<rect x="90.001" y="134" width="19" height="22" fill="#00B628"/>
<path d="M27.001 31.5C27.001 27.9196 28.4233 24.4858 30.955 21.9541C33.4868 19.4223 36.9206 18 40.501 18H103.501C107.081 18 110.515 19.4223 113.047 21.9541C115.579 24.4858 117.001 27.9196 117.001 31.5V47.637L146.413 77.049C150.63 81.2672 153 86.9873 153.001 92.952V157.5C153.001 158.693 152.527 159.838 151.683 160.682C150.839 161.526 149.694 162 148.501 162C147.308 162 146.163 161.526 145.319 160.682C144.475 159.838 144.001 158.693 144.001 157.5V92.952C143.998 89.3728 142.573 85.9413 140.041 83.412L117.001 60.372V88.137L124.687 95.814C125.531 96.659 126.004 97.8045 126.003 98.9987C126.003 100.193 125.527 101.338 124.682 102.181C124.264 102.599 123.768 102.931 123.221 103.156C122.675 103.382 122.089 103.498 121.498 103.498C120.304 103.497 119.159 103.022 118.315 102.177L91.315 75.177C87.517 71.379 85.402 71.541 84.475 71.775C82.918 72.153 81.541 73.395 79.615 75.249C78.715 76.113 78.337 76.959 78.517 78.219C78.751 79.794 79.984 82.611 84.187 86.814L95.104 97.731L97.678 100.314C98.0972 100.732 98.4299 101.228 98.6569 101.775C98.8839 102.322 99.0009 102.908 99.001 103.5C99.001 110.466 99.055 117.477 100.981 122.769C101.899 125.298 103.15 127.143 104.797 128.376C106.408 129.582 108.784 130.5 112.501 130.5C113.694 130.5 114.839 130.974 115.683 131.818C116.527 132.662 117.001 133.807 117.001 135V148.5C117.001 152.08 115.579 155.514 113.047 158.046C110.515 160.578 107.081 162 103.501 162H40.501C36.9206 162 33.4868 160.578 30.955 158.046C28.4233 155.514 27.001 152.08 27.001 148.5V31.5ZM72.001 67.5C68.2216 67.4995 64.503 68.451 61.1884 70.2667C57.8737 72.0823 55.0699 74.7037 53.0355 77.8889C51.0012 81.074 49.802 84.7203 49.5485 88.4911C49.2951 92.262 49.9956 96.0359 51.5854 99.4646C53.1752 102.893 55.603 105.866 58.6449 108.109C61.6867 110.352 65.2446 111.793 68.99 112.298C72.7354 112.803 76.5478 112.357 80.0752 111C83.6027 109.643 86.7315 107.42 89.173 104.535L88.723 104.085L77.815 93.177C73.018 88.38 70.255 83.871 69.616 79.533C69.3057 77.562 69.4886 75.5449 70.1482 73.6619C70.8078 71.7788 71.9236 70.0885 73.396 68.742L73.702 68.445L74.548 67.635C73.7022 67.5424 72.8518 67.4974 72.001 67.5ZM90.001 148.5V153H99.001V148.5C99.001 147.306 99.4751 146.162 100.319 145.318C101.163 144.474 102.308 144 103.501 144H108.001V139.14C104.91 138.67 101.977 137.463 99.451 135.621C96.7104 136.483 94.3162 138.197 92.6167 140.513C90.9171 142.829 90.0008 145.627 90.001 148.5ZM36.001 45H40.501C44.0814 45 47.5152 43.5777 50.0469 41.0459C52.5787 38.5142 54.001 35.0804 54.001 31.5V27H45.001V31.5C45.001 32.6935 44.5269 33.8381 43.683 34.682C42.839 35.5259 41.6945 36 40.501 36H36.001V45ZM90.001 31.5C90.001 35.0804 91.4233 38.5142 93.955 41.0459C96.4868 43.5777 99.9206 45 103.501 45H108.001V36H103.501C102.308 36 101.163 35.5259 100.319 34.682C99.4751 33.8381 99.001 32.6935 99.001 31.5V27H90.001V31.5ZM54.001 148.5C54.001 144.92 52.5787 141.486 50.0469 138.954C47.5152 136.422 44.0814 135 40.501 135H36.001V144H40.501C41.6945 144 42.839 144.474 43.683 145.318C44.5269 146.162 45.001 147.306 45.001 148.5V153H54.001V148.5Z" fill="#202122"/>
</svg>
